<svg width="122px" height="125px" viewBox="0 0 122 125" xmlns="http://www.w3.org/2000/svg">
   <g>
      <path stroke-linecap="round" d="M 60 0 L 0 0" fill="none" stroke="#000000" stroke-miterlimit="10" pointer-events="stroke"/>
      <path stroke-linecap="round" d="M 0 44 L 120 44" fill="none" stroke="#000000" stroke-miterlimit="10" pointer-events="stroke"/>
      <path stroke-linecap="round" d="M 56 56 L 56 44" fill="none" stroke="#000000" stroke-miterlimit="10" pointer-events="stroke"/>
      <path stroke-linecap="round" d="M 72 58 L 56 56" fill="none" stroke="#000000" stroke-miterlimit="10" pointer-events="stroke"/>
      <path stroke-linecap="round" d="M 40 62 L 72 58" fill="none" stroke="#000000" stroke-miterlimit="10" pointer-events="stroke"/>
      <path stroke-linecap="round" d="M 72 66 L 40 62" fill="none" stroke="#000000" stroke-miterlimit="10" pointer-events="stroke"/>
      <path stroke-linecap="round" d="M 40 70 L 72 66" fill="none" stroke="#000000" stroke-miterlimit="10" pointer-events="stroke"/>
      <path stroke-linecap="round" d="M 72 74 L 40 70" fill="none" stroke="#000000" stroke-miterlimit="10" pointer-events="stroke"/>
      <path stroke-linecap="round" d="M 40 78 L 72 74" fill="none" stroke="#000000" stroke-miterlimit="10" pointer-events="stroke"/>
      <path stroke-linecap="round" d="M 72 82 L 40 78" fill="none" stroke="#000000" stroke-miterlimit="10" pointer-events="stroke"/>
      <path stroke-linecap="round" d="M 72 82 L 56 84" fill="none" stroke="#000000" stroke-miterlimit="10" pointer-events="stroke"/>
      <path stroke-linecap="round" d="M 56 92 L 56 84" fill="none" stroke="#000000" stroke-miterlimit="10" pointer-events="stroke"/>
      <path stroke-linecap="round" d="M 24 92 L 88 92" fill="none" stroke="#000000" stroke-miterlimit="10" pointer-events="stroke"/>
      <path stroke-linecap="round" d="M 24 98 L 88 98" fill="none" stroke="#000000" stroke-miterlimit="10" pointer-events="stroke"/>
      <path stroke-linecap="round" d="M 56 110 L 56 98" fill="none" stroke="#000000" stroke-miterlimit="10" pointer-events="stroke"/>
      <path stroke-linecap="round" d="M 44 110 L 68 110" fill="none" stroke="#000000" stroke-miterlimit="10" pointer-events="stroke"/>
      <path stroke-linecap="round" d="M 48 112 L 64 112" fill="none" stroke="#000000" stroke-miterlimit="10" pointer-events="stroke"/>
      <path stroke-linecap="round" d="M 52 114 L 60 114" fill="none" stroke="#000000" stroke-miterlimit="10" pointer-events="stroke"/>
   </g>
</svg>